<svg xmlns="http://www.w3.org/2000/svg" xmlns:xlink="http://www.w3.org/1999/xlink" width="2000" zoomAndPan="magnify" viewBox="0 0 1500 1499.999933" height="2000" preserveAspectRatio="xMidYMid meet" version="1.0"><defs><g/><clipPath id="05ebddcb20"><rect x="0" width="113" y="0" height="244"/></clipPath><clipPath id="e09813dfed"><path d="M 411.84375 670.046875 L 420.574219 670.046875 L 420.574219 823.851562 L 411.84375 823.851562 Z M 411.84375 670.046875 " clip-rule="nonzero"/></clipPath><clipPath id="8c996be1b0"><path d="M 0.84375 0.046875 L 9.574219 0.046875 L 9.574219 153.851562 L 0.84375 153.851562 Z M 0.84375 0.046875 " clip-rule="nonzero"/></clipPath><clipPath id="582815d543"><rect x="0" width="10" y="0" height="154"/></clipPath><clipPath id="19e4517dca"><rect x="0" width="599" y="0" height="174"/></clipPath></defs><g transform="matrix(1, 0, 0, 1, 356, 628)"><g clip-path="url(#05ebddcb20)"><g fill="#8ea2ff" fill-opacity="1"><g transform="translate(1.476925, 187.261944)"><g><path d="M 12.5625 3.625 L 7.8125 3.625 L 7.8125 1.515625 C 7.8125 -2.285156 8.507812 -5.203125 9.90625 -7.234375 C 11.300781 -9.265625 13.078125 -10.40625 15.234375 -10.65625 C 12.441406 -13.195312 10.503906 -16.117188 9.421875 -19.421875 C 8.347656 -22.722656 7.8125 -27.101562 7.8125 -32.5625 L 7.8125 -37.328125 L 12.5625 -37.328125 C 17.769531 -28.566406 22.4375 -21.898438 26.5625 -17.328125 C 30.6875 -12.753906 34.84375 -9.609375 39.03125 -7.890625 C 43.226562 -6.179688 47.925781 -5.328125 53.125 -5.328125 C 61.375 -5.328125 67.46875 -7.613281 71.40625 -12.1875 C 75.34375 -16.757812 77.3125 -21.960938 77.3125 -27.796875 C 77.3125 -31.609375 76.359375 -35.578125 74.453125 -39.703125 C 72.546875 -43.828125 69.691406 -47.476562 65.890625 -50.65625 C 59.535156 -56.113281 52.898438 -61.253906 45.984375 -66.078125 C 39.066406 -70.898438 33.066406 -75.40625 27.984375 -79.59375 C 22.910156 -83.914062 19.390625 -87.851562 17.421875 -91.40625 C 15.453125 -94.957031 14.46875 -99.082031 14.46875 -103.78125 C 14.46875 -110.632812 16.179688 -116.535156 19.609375 -121.484375 C 23.035156 -126.441406 27.796875 -130.25 33.890625 -132.90625 C 39.984375 -135.570312 46.96875 -136.90625 54.84375 -136.90625 C 60.550781 -136.90625 65.59375 -136.75 69.96875 -136.4375 C 74.351562 -136.125 77.878906 -135.648438 80.546875 -135.015625 C 84.097656 -134.242188 86.507812 -134.113281 87.78125 -134.625 C 89.050781 -135.132812 90.320312 -136.40625 91.59375 -138.4375 L 96.359375 -138.4375 L 96.359375 -136.15625 C 96.359375 -132.976562 95.753906 -130.242188 94.546875 -127.953125 C 93.335938 -125.671875 91.460938 -124.40625 88.921875 -124.15625 C 92.222656 -121.363281 94.285156 -118.316406 95.109375 -115.015625 C 95.941406 -111.710938 96.359375 -108.222656 96.359375 -104.546875 L 96.359375 -97.3125 L 91.59375 -97.3125 C 88.800781 -106.195312 85.148438 -112.890625 80.640625 -117.390625 C 76.140625 -121.898438 71.507812 -124.976562 66.75 -126.625 C 61.988281 -128.28125 57.703125 -129.109375 53.890625 -129.109375 C 48.679688 -129.109375 44.488281 -128.023438 41.3125 -125.859375 C 38.144531 -123.703125 35.863281 -121.195312 34.46875 -118.34375 C 33.070312 -115.488281 32.375 -112.851562 32.375 -110.4375 C 32.375 -107.90625 33.101562 -105.398438 34.5625 -102.921875 C 36.019531 -100.441406 37.507812 -98.441406 39.03125 -96.921875 C 41.570312 -94.515625 45.253906 -91.628906 50.078125 -88.265625 C 54.898438 -84.898438 60.132812 -81.28125 65.78125 -77.40625 C 71.4375 -73.53125 76.613281 -69.5 81.3125 -65.3125 C 87.019531 -60.238281 91.113281 -55.507812 93.59375 -51.125 C 96.070312 -46.75 97.3125 -41.832031 97.3125 -36.375 C 97.3125 -32.1875 96.515625 -27.835938 94.921875 -23.328125 C 93.335938 -18.816406 90.703125 -14.625 87.015625 -10.75 C 83.335938 -6.882812 78.484375 -3.742188 72.453125 -1.328125 C 66.421875 1.078125 58.898438 2.28125 49.890625 2.28125 C 45.191406 2.28125 40.8125 2.1875 36.75 2 C 32.6875 1.8125 28.5625 1.269531 24.375 0.375 C 20.695312 -0.382812 18.191406 -0.570312 16.859375 -0.1875 C 15.523438 0.1875 14.09375 1.457031 12.5625 3.625 Z M 12.5625 3.625 "/></g></g></g></g></g><g clip-path="url(#e09813dfed)"><g transform="matrix(1, 0, 0, 1, 411, 670)"><g clip-path="url(#582815d543)"><g clip-path="url(#8c996be1b0)"><path fill="#000000" d="M 0.84375 0.046875 L 9.574219 0.046875 L 9.574219 153.851562 L 0.84375 153.851562 Z M 0.84375 0.046875 " fill-opacity="1" fill-rule="nonzero"/></g></g></g></g><g transform="matrix(1, 0, 0, 1, 450, 690)"><g clip-path="url(#19e4517dca)"><g fill="#5271ff" fill-opacity="1"><g transform="translate(1.860311, 132.316678)"><g><path d="M 2.5625 0 L 1.078125 0 L 1.078125 -3.375 C 5.023438 -4.894531 7.960938 -7.023438 9.890625 -9.765625 C 11.828125 -12.503906 13.601562 -15.894531 15.21875 -19.9375 L 36.640625 -75.03125 C 38.441406 -79.53125 38.597656 -83.304688 37.109375 -86.359375 C 35.628906 -89.410156 32.914062 -91.207031 28.96875 -91.75 L 28.96875 -95.109375 L 33.671875 -95.109375 C 36.285156 -95.109375 38.644531 -94.660156 40.75 -93.765625 C 42.863281 -92.867188 44.503906 -91.566406 45.671875 -89.859375 C 46.929688 -91.648438 48.835938 -92.972656 51.390625 -93.828125 C 53.953125 -94.679688 57.703125 -95.109375 62.640625 -95.109375 C 62.285156 -92.503906 62.507812 -89.941406 63.3125 -87.421875 C 64.125 -84.910156 65.023438 -82.351562 66.015625 -79.75 L 88.78125 -22.5 C 90.757812 -17.5625 92.597656 -13.453125 94.296875 -10.171875 C 96.003906 -6.890625 98.703125 -4.625 102.390625 -3.375 L 102.390625 0 L 94.984375 0 C 88.515625 0 84.066406 -1.75 81.640625 -5.25 C 79.210938 -1.75 74.765625 0 68.296875 0 L 60.625 0 L 60.625 -3.375 C 65.46875 -4.625 68.519531 -6.4375 69.78125 -8.8125 C 71.039062 -11.195312 70.90625 -14.367188 69.375 -18.328125 L 62.515625 -36.515625 L 29.234375 -36.515625 L 23.84375 -20.609375 C 22.132812 -15.398438 22.289062 -11.515625 24.3125 -8.953125 C 26.332031 -6.398438 29.410156 -4.539062 33.546875 -3.375 L 33.546875 0 L 29.234375 0 C 22.765625 0 18.316406 -1.75 15.890625 -5.25 C 13.472656 -1.75 9.03125 0 2.5625 0 Z M 45.9375 -79.21875 L 32.203125 -44.1875 L 59.546875 -44.1875 Z M 45.9375 -79.21875 "/></g></g></g><g fill="#5271ff" fill-opacity="1"><g transform="translate(105.440696, 132.316678)"><g><path d="M 13.609375 0 L 3.09375 0 L 3.09375 -3.375 C 8.664062 -4.445312 12.394531 -6.238281 14.28125 -8.75 C 16.164062 -11.269531 17.109375 -14.460938 17.109375 -18.328125 L 17.109375 -76.109375 C 17.109375 -78.453125 16.859375 -80.609375 16.359375 -82.578125 C 15.867188 -84.554688 14.65625 -86.332031 12.71875 -87.90625 C 10.789062 -89.476562 7.628906 -90.757812 3.234375 -91.75 L 3.234375 -95.109375 L 13.609375 -95.109375 C 20.078125 -95.109375 24.519531 -93.359375 26.9375 -89.859375 C 28.738281 -91.566406 31.1875 -92.867188 34.28125 -93.765625 C 37.382812 -94.660156 42.078125 -95.109375 48.359375 -95.109375 L 75.84375 -95.109375 C 77.90625 -95.109375 79.585938 -95.242188 80.890625 -95.515625 C 82.203125 -95.785156 83.171875 -96.679688 83.796875 -98.203125 L 87.15625 -98.203125 L 87.15625 -95.78125 C 87.15625 -90.570312 85.40625 -87.742188 81.90625 -87.296875 C 83.789062 -85.679688 85.132812 -83.75 85.9375 -81.5 C 86.75 -79.257812 87.15625 -76.566406 87.15625 -73.421875 L 87.15625 -65.875 L 83.796875 -65.875 C 81.816406 -73.875 78.195312 -79.734375 72.9375 -83.453125 C 67.6875 -87.179688 60.53125 -89.09375 51.46875 -89.1875 C 45.71875 -89.363281 41.804688 -88.304688 39.734375 -86.015625 C 37.671875 -83.722656 36.640625 -80.332031 36.640625 -75.84375 L 36.640625 -52.9375 L 47.015625 -52.9375 C 50.515625 -52.9375 53.789062 -53.382812 56.84375 -54.28125 C 59.90625 -55.1875 62.421875 -56.554688 64.390625 -58.390625 C 66.367188 -60.234375 67.492188 -62.550781 67.765625 -65.34375 L 71 -65.34375 L 71 -63.046875 C 71 -56.578125 69.25 -52.132812 65.75 -49.71875 C 69.25 -47.289062 71 -42.84375 71 -36.375 L 71 -33.28125 L 67.890625 -33.28125 C 67.359375 -37.945312 65.113281 -41.378906 61.15625 -43.578125 C 57.207031 -45.773438 52.046875 -46.875 45.671875 -46.875 L 36.640625 -46.875 L 36.640625 -18.328125 C 36.640625 -16.171875 36.953125 -14.101562 37.578125 -12.125 C 38.210938 -10.144531 39.628906 -8.390625 41.828125 -6.859375 C 44.023438 -5.335938 47.460938 -4.175781 52.140625 -3.375 L 52.140625 0 L 40.28125 0 C 33.8125 0 29.363281 -1.75 26.9375 -5.25 C 24.519531 -1.75 20.078125 0 13.609375 0 Z M 13.609375 0 "/></g></g></g><g fill="#5271ff" fill-opacity="1"><g transform="translate(196.22503, 132.316678)"><g><path d="M 2.5625 0 L 1.078125 0 L 1.078125 -3.375 C 5.023438 -4.894531 7.960938 -7.023438 9.890625 -9.765625 C 11.828125 -12.503906 13.601562 -15.894531 15.21875 -19.9375 L 36.640625 -75.03125 C 38.441406 -79.53125 38.597656 -83.304688 37.109375 -86.359375 C 35.628906 -89.410156 32.914062 -91.207031 28.96875 -91.75 L 28.96875 -95.109375 L 33.671875 -95.109375 C 36.285156 -95.109375 38.644531 -94.660156 40.75 -93.765625 C 42.863281 -92.867188 44.503906 -91.566406 45.671875 -89.859375 C 46.929688 -91.648438 48.835938 -92.972656 51.390625 -93.828125 C 53.953125 -94.679688 57.703125 -95.109375 62.640625 -95.109375 C 62.285156 -92.503906 62.507812 -89.941406 63.3125 -87.421875 C 64.125 -84.910156 65.023438 -82.351562 66.015625 -79.75 L 88.78125 -22.5 C 90.757812 -17.5625 92.597656 -13.453125 94.296875 -10.171875 C 96.003906 -6.890625 98.703125 -4.625 102.390625 -3.375 L 102.390625 0 L 94.984375 0 C 88.515625 0 84.066406 -1.75 81.640625 -5.25 C 79.210938 -1.75 74.765625 0 68.296875 0 L 60.625 0 L 60.625 -3.375 C 65.46875 -4.625 68.519531 -6.4375 69.78125 -8.8125 C 71.039062 -11.195312 70.90625 -14.367188 69.375 -18.328125 L 62.515625 -36.515625 L 29.234375 -36.515625 L 23.84375 -20.609375 C 22.132812 -15.398438 22.289062 -11.515625 24.3125 -8.953125 C 26.332031 -6.398438 29.410156 -4.539062 33.546875 -3.375 L 33.546875 0 L 29.234375 0 C 22.765625 0 18.316406 -1.75 15.890625 -5.25 C 13.472656 -1.75 9.03125 0 2.5625 0 Z M 45.9375 -79.21875 L 32.203125 -44.1875 L 59.546875 -44.1875 Z M 45.9375 -79.21875 "/></g></g></g><g fill="#5271ff" fill-opacity="1"><g transform="translate(299.805415, 132.316678)"><g><path d="M 98.203125 -95.109375 L 100.765625 -95.109375 L 100.765625 -91.46875 C 97.359375 -89.945312 94.484375 -87.859375 92.140625 -85.203125 C 89.804688 -82.554688 87.425781 -79.484375 85 -75.984375 L 60.765625 -40.015625 L 60.765625 -18.328125 C 60.765625 -14.460938 61.726562 -11.226562 63.65625 -8.625 C 65.582031 -6.019531 69.375 -4.359375 75.03125 -3.640625 L 75.03125 0 L 64.53125 0 C 58.0625 0 53.613281 -1.75 51.1875 -5.25 C 48.769531 -1.75 44.328125 0 37.859375 0 L 26.8125 0 L 26.8125 -3.640625 C 32.375 -4.359375 36.117188 -5.992188 38.046875 -8.546875 C 39.984375 -11.109375 40.953125 -14.367188 40.953125 -18.328125 L 40.953125 -37.453125 L 16.03125 -78.546875 C 14.320312 -81.503906 12.410156 -84.015625 10.296875 -86.078125 C 8.191406 -88.148438 5.03125 -89.945312 0.8125 -91.46875 L 0.8125 -95.109375 L 11.1875 -95.109375 C 14.414062 -95.109375 17.21875 -94.660156 19.59375 -93.765625 C 21.976562 -92.867188 24.066406 -91.566406 25.859375 -89.859375 C 26.316406 -91.566406 27.664062 -92.867188 29.90625 -93.765625 C 32.15625 -94.660156 34.804688 -95.109375 37.859375 -95.109375 L 47.15625 -95.109375 L 47.15625 -91.75 C 43.019531 -91.113281 39.984375 -90.125 38.046875 -88.78125 C 36.117188 -87.4375 35.15625 -85.863281 35.15625 -84.0625 C 35.15625 -83.4375 35.289062 -82.695312 35.5625 -81.84375 C 35.832031 -80.988281 36.28125 -80.113281 36.90625 -79.21875 L 57.390625 -46.609375 L 74.359375 -72.34375 C 75.441406 -73.957031 76.296875 -75.523438 76.921875 -77.046875 C 77.554688 -78.578125 77.875 -80.019531 77.875 -81.375 C 77.875 -83.4375 76.925781 -85.519531 75.03125 -87.625 C 73.144531 -89.738281 70.226562 -91.113281 66.28125 -91.75 L 66.28125 -95.109375 L 71.53125 -95.109375 C 78 -95.109375 82.445312 -93.359375 84.875 -89.859375 C 87.300781 -93.359375 91.742188 -95.109375 98.203125 -95.109375 Z M 98.203125 -95.109375 "/></g></g></g><g fill="#5271ff" fill-opacity="1"><g transform="translate(401.500075, 132.316678)"><g><path d="M 87.84375 2.828125 L 84.46875 2.828125 C 83.84375 1.390625 82.878906 0.554688 81.578125 0.328125 C 80.273438 0.109375 78.585938 0 76.515625 0 L 49.171875 0 C 42.796875 0 38.054688 -0.445312 34.953125 -1.34375 C 31.859375 -2.238281 29.28125 -3.539062 27.21875 -5.25 C 24.789062 -1.75 20.34375 0 13.875 0 L 3.234375 0 L 3.234375 -3.375 C 8.796875 -4.445312 12.472656 -6.285156 14.265625 -8.890625 C 16.066406 -11.492188 16.96875 -14.640625 16.96875 -18.328125 L 16.96875 -76.796875 C 16.96875 -80.566406 16.046875 -83.726562 14.203125 -86.28125 C 12.367188 -88.84375 8.664062 -90.664062 3.09375 -91.75 L 3.09375 -95.109375 L 13.875 -95.109375 C 20.34375 -95.109375 24.789062 -93.359375 27.21875 -89.859375 C 29.1875 -91.648438 31.851562 -92.972656 35.21875 -93.828125 C 38.59375 -94.679688 43.242188 -95.109375 49.171875 -95.109375 L 76.515625 -95.109375 C 78.585938 -95.109375 80.273438 -95.242188 81.578125 -95.515625 C 82.878906 -95.785156 83.84375 -96.679688 84.46875 -98.203125 L 87.84375 -98.203125 L 87.84375 -95.25 C 87.84375 -92.820312 87.414062 -90.84375 86.5625 -89.3125 C 85.707031 -87.789062 84.378906 -86.941406 82.578125 -86.765625 C 84.378906 -85.140625 85.707031 -83.269531 86.5625 -81.15625 C 87.414062 -79.050781 87.84375 -76.289062 87.84375 -72.875 L 87.84375 -65.875 L 84.46875 -65.875 C 82.488281 -73.957031 78.804688 -79.882812 73.421875 -83.65625 C 68.035156 -87.425781 60.941406 -89.3125 52.140625 -89.3125 C 47.378906 -89.3125 43.875 -88.75 41.625 -87.625 C 39.382812 -86.507812 37.972656 -84.894531 37.390625 -82.78125 C 36.804688 -80.675781 36.515625 -78.140625 36.515625 -75.171875 L 36.515625 -52.9375 L 45.125 -52.9375 C 50.425781 -52.9375 55.117188 -53.96875 59.203125 -56.03125 C 63.296875 -58.101562 65.519531 -61.207031 65.875 -65.34375 L 69.109375 -65.34375 L 69.109375 -63.046875 C 69.109375 -56.578125 67.359375 -52.132812 63.859375 -49.71875 C 65.566406 -48.539062 66.867188 -46.738281 67.765625 -44.3125 C 68.660156 -41.894531 69.109375 -39.25 69.109375 -36.375 L 69.109375 -33.28125 L 66.015625 -33.28125 C 65.472656 -37.769531 63.222656 -41.15625 59.265625 -43.4375 C 55.316406 -45.726562 50.15625 -46.875 43.78125 -46.875 L 36.515625 -46.875 L 36.515625 -21.015625 C 36.515625 -18.234375 36.828125 -15.695312 37.453125 -13.40625 C 38.078125 -11.113281 39.578125 -9.316406 41.953125 -8.015625 C 44.335938 -6.710938 48.09375 -6.0625 53.21875 -6.0625 C 61.476562 -6.0625 68.253906 -7.925781 73.546875 -11.65625 C 78.847656 -15.382812 82.488281 -21.242188 84.46875 -29.234375 L 87.84375 -29.234375 L 87.84375 -22.5 C 87.84375 -19 87.414062 -16.191406 86.5625 -14.078125 C 85.707031 -11.960938 84.378906 -10.144531 82.578125 -8.625 C 84.191406 -8.445312 85.472656 -7.570312 86.421875 -6 C 87.367188 -4.425781 87.84375 -2.378906 87.84375 0.140625 Z M 87.84375 2.828125 "/></g></g></g><g fill="#5271ff" fill-opacity="1"><g transform="translate(496.459985, 132.316678)"><g><path d="M 37.453125 0 L 23.984375 0 L 23.984375 -3.375 C 29.015625 -4.351562 32.71875 -5.5625 35.09375 -7 C 37.476562 -8.4375 39.050781 -10.097656 39.8125 -11.984375 C 40.570312 -13.867188 40.953125 -15.984375 40.953125 -18.328125 L 40.953125 -74.765625 C 40.953125 -77.367188 40.660156 -79.769531 40.078125 -81.96875 C 39.492188 -84.175781 38.347656 -85.953125 36.640625 -87.296875 C 34.929688 -88.640625 32.375 -89.3125 28.96875 -89.3125 C 24.925781 -89.3125 20.769531 -87.335938 16.5 -83.390625 C 12.238281 -79.441406 8.984375 -73.601562 6.734375 -65.875 L 3.375 -65.875 L 3.375 -72.875 C 3.375 -76.019531 3.753906 -78.691406 4.515625 -80.890625 C 5.273438 -83.097656 6.644531 -85.054688 8.625 -86.765625 C 5.125 -87.210938 3.375 -90.039062 3.375 -95.25 L 3.375 -98.203125 L 6.734375 -98.203125 C 7.453125 -96.679688 8.4375 -95.785156 9.6875 -95.515625 C 10.945312 -95.242188 12.65625 -95.109375 14.8125 -95.109375 L 86.765625 -95.109375 C 88.910156 -95.109375 90.632812 -95.242188 91.9375 -95.515625 C 93.25 -95.785156 94.21875 -96.679688 94.84375 -98.203125 L 98.203125 -98.203125 L 98.203125 -95.25 C 98.203125 -90.039062 96.453125 -87.210938 92.953125 -86.765625 C 94.929688 -85.054688 96.300781 -83.097656 97.0625 -80.890625 C 97.820312 -78.691406 98.203125 -76.019531 98.203125 -72.875 L 98.203125 -65.875 L 94.84375 -65.875 C 92.59375 -73.601562 89.332031 -79.441406 85.0625 -83.390625 C 80.800781 -87.335938 76.648438 -89.3125 72.609375 -89.3125 C 69.285156 -89.3125 66.769531 -88.640625 65.0625 -87.296875 C 63.363281 -85.953125 62.222656 -84.175781 61.640625 -81.96875 C 61.054688 -79.769531 60.765625 -77.367188 60.765625 -74.765625 L 60.765625 -18.328125 C 60.765625 -15.984375 61.117188 -13.867188 61.828125 -11.984375 C 62.546875 -10.097656 64.09375 -8.4375 66.46875 -7 C 68.851562 -5.5625 72.609375 -4.351562 77.734375 -3.375 L 77.734375 0 L 64.125 0 C 61.070312 0 58.378906 -0.445312 56.046875 -1.34375 C 53.710938 -2.238281 51.957031 -3.539062 50.78125 -5.25 C 48.363281 -1.75 43.921875 0 37.453125 0 Z M 37.453125 0 "/></g></g></g></g></g></svg>